<?xml version="1.0" encoding="UTF-8" standalone="no"?>
<!DOCTYPE svg PUBLIC "-//W3C//DTD SVG 1.1//EN"
 "http://www.w3.org/Graphics/SVG/1.1/DTD/svg11.dtd">
<!-- Generated by graphviz version 5.0.0 (20220707.1540)
 -->
<!-- Title: dependencies Pages: 1 -->
<svg width="2192pt" height="247pt"
 viewBox="0.00 0.00 2192.00 246.80" xmlns="http://www.w3.org/2000/svg" xmlns:xlink="http://www.w3.org/1999/xlink">
<g id="graph0" class="graph" transform="scale(1 1) rotate(0) translate(4 242.8)">
<title>dependencies</title>
<polygon fill="white" stroke="transparent" points="-4,4 -4,-242.8 2188,-242.8 2188,4 -4,4"/>
<text text-anchor="middle" x="1092" y="-8.2" font-family="sans-serif" font-size="14.00">dependencies</text>
<g id="clust1" class="cluster">
<title>cluster_AppModule</title>
<polygon fill="none" stroke="black" stroke-dasharray="1,5" points="8,-32.8 8,-230.8 2176,-230.8 2176,-32.8 8,-32.8"/>
</g>
<g id="clust14" class="cluster">
<title>cluster_AppModule_imports</title>
<polygon fill="none" stroke="black" points="2024,-40.8 2024,-92.8 2168,-92.8 2168,-40.8 2024,-40.8"/>
</g>
<g id="clust16" class="cluster">
<title>cluster_AppModule_bootstrap</title>
<polygon fill="none" stroke="black" points="1060,-170.8 1060,-222.8 1184,-222.8 1184,-170.8 1060,-170.8"/>
</g>
<g id="clust2" class="cluster">
<title>cluster_AppModule_declarations</title>
<polygon fill="none" stroke="black" points="16,-40.8 16,-92.8 2016,-92.8 2016,-40.8 16,-40.8"/>
</g>
<!-- AppComponent -->
<g id="node1" class="node">
<title>AppComponent</title>
<polygon fill="#ffffb3" stroke="black" points="2007.94,-84.8 1902.06,-84.8 1902.06,-48.8 2007.94,-48.8 2007.94,-84.8"/>
<text text-anchor="middle" x="1955" y="-62.6" font-family="Times,serif" font-size="14.00">AppComponent</text>
</g>
<!-- AppModule -->
<g id="node12" class="node">
<title>AppModule</title>
<polygon fill="#8dd3c7" stroke="black" points="1163.66,-149.8 1160.66,-153.8 1139.66,-153.8 1136.66,-149.8 1080.34,-149.8 1080.34,-113.8 1163.66,-113.8 1163.66,-149.8"/>
<text text-anchor="middle" x="1122" y="-127.6" font-family="Times,serif" font-size="14.00">AppModule</text>
</g>
<!-- AppComponent&#45;&gt;AppModule -->
<g id="edge1" class="edge">
<title>AppComponent&#45;&gt;AppModule</title>
<path fill="none" stroke="black" d="M1955,-85.08C1955,-106.12 1955,-137.8 1955,-137.8 1955,-137.8 1173.88,-137.8 1173.88,-137.8"/>
<polygon fill="black" stroke="black" points="1173.88,-134.3 1163.88,-137.8 1173.88,-141.3 1173.88,-134.3"/>
</g>
<!-- ConfirmableDeleteComponent -->
<g id="node2" class="node">
<title>ConfirmableDeleteComponent</title>
<polygon fill="#ffffb3" stroke="black" points="1884.12,-84.8 1695.88,-84.8 1695.88,-48.8 1884.12,-48.8 1884.12,-84.8"/>
<text text-anchor="middle" x="1790" y="-62.6" font-family="Times,serif" font-size="14.00">ConfirmableDeleteComponent</text>
</g>
<!-- ConfirmableDeleteComponent&#45;&gt;AppModule -->
<g id="edge2" class="edge">
<title>ConfirmableDeleteComponent&#45;&gt;AppModule</title>
<path fill="none" stroke="black" d="M1790,-84.91C1790,-104.14 1790,-131.8 1790,-131.8 1790,-131.8 1173.79,-131.8 1173.79,-131.8"/>
<polygon fill="black" stroke="black" points="1173.79,-128.3 1163.79,-131.8 1173.79,-135.3 1173.79,-128.3"/>
</g>
<!-- EmployeeDetailsComponent -->
<g id="node3" class="node">
<title>EmployeeDetailsComponent</title>
<polygon fill="#ffffb3" stroke="black" points="1677.75,-84.8 1500.25,-84.8 1500.25,-48.8 1677.75,-48.8 1677.75,-84.8"/>
<text text-anchor="middle" x="1589" y="-62.6" font-family="Times,serif" font-size="14.00">EmployeeDetailsComponent</text>
</g>
<!-- EmployeeDetailsComponent&#45;&gt;AppModule -->
<g id="edge3" class="edge">
<title>EmployeeDetailsComponent&#45;&gt;AppModule</title>
<path fill="none" stroke="black" d="M1589,-84.82C1589,-102.17 1589,-125.8 1589,-125.8 1589,-125.8 1173.85,-125.8 1173.85,-125.8"/>
<polygon fill="black" stroke="black" points="1173.85,-122.3 1163.85,-125.8 1173.85,-129.3 1173.85,-122.3"/>
</g>
<!-- EmployeeEditorComponent -->
<g id="node4" class="node">
<title>EmployeeEditorComponent</title>
<polygon fill="#ffffb3" stroke="black" points="1482.58,-84.8 1309.42,-84.8 1309.42,-48.8 1482.58,-48.8 1482.58,-84.8"/>
<text text-anchor="middle" x="1396" y="-62.6" font-family="Times,serif" font-size="14.00">EmployeeEditorComponent</text>
</g>
<!-- EmployeeEditorComponent&#45;&gt;AppModule -->
<g id="edge4" class="edge">
<title>EmployeeEditorComponent&#45;&gt;AppModule</title>
<path fill="none" stroke="black" d="M1396,-85.04C1396,-100.37 1396,-119.8 1396,-119.8 1396,-119.8 1173.91,-119.8 1173.91,-119.8"/>
<polygon fill="black" stroke="black" points="1173.91,-116.3 1163.91,-119.8 1173.91,-123.3 1173.91,-116.3"/>
</g>
<!-- EmployeeListComponent -->
<g id="node5" class="node">
<title>EmployeeListComponent</title>
<polygon fill="#ffffb3" stroke="black" points="1291.87,-84.8 1132.13,-84.8 1132.13,-48.8 1291.87,-48.8 1291.87,-84.8"/>
<text text-anchor="middle" x="1212" y="-62.6" font-family="Times,serif" font-size="14.00">EmployeeListComponent</text>
</g>
<!-- EmployeeListComponent&#45;&gt;AppModule -->
<g id="edge5" class="edge">
<title>EmployeeListComponent&#45;&gt;AppModule</title>
<path fill="none" stroke="black" d="M1147.95,-84.91C1147.95,-84.91 1147.95,-103.79 1147.95,-103.79"/>
<polygon fill="black" stroke="black" points="1144.45,-103.79 1147.95,-113.79 1151.45,-103.79 1144.45,-103.79"/>
</g>
<!-- NavigationBarComponent -->
<g id="node6" class="node">
<title>NavigationBarComponent</title>
<polygon fill="#ffffb3" stroke="black" points="1113.75,-84.8 950.25,-84.8 950.25,-48.8 1113.75,-48.8 1113.75,-84.8"/>
<text text-anchor="middle" x="1032" y="-62.6" font-family="Times,serif" font-size="14.00">NavigationBarComponent</text>
</g>
<!-- NavigationBarComponent&#45;&gt;AppModule -->
<g id="edge6" class="edge">
<title>NavigationBarComponent&#45;&gt;AppModule</title>
<path fill="none" stroke="black" d="M1097.02,-84.91C1097.02,-84.91 1097.02,-103.79 1097.02,-103.79"/>
<polygon fill="black" stroke="black" points="1093.52,-103.79 1097.02,-113.79 1100.52,-103.79 1093.52,-103.79"/>
</g>
<!-- NotFoundComponent -->
<g id="node7" class="node">
<title>NotFoundComponent</title>
<polygon fill="#ffffb3" stroke="black" points="932.12,-84.8 793.88,-84.8 793.88,-48.8 932.12,-48.8 932.12,-84.8"/>
<text text-anchor="middle" x="863" y="-62.6" font-family="Times,serif" font-size="14.00">NotFoundComponent</text>
</g>
<!-- NotFoundComponent&#45;&gt;AppModule -->
<g id="edge7" class="edge">
<title>NotFoundComponent&#45;&gt;AppModule</title>
<path fill="none" stroke="black" d="M863,-85.04C863,-100.37 863,-119.8 863,-119.8 863,-119.8 1070.1,-119.8 1070.1,-119.8"/>
<polygon fill="black" stroke="black" points="1070.1,-123.3 1080.1,-119.8 1070.1,-116.3 1070.1,-123.3"/>
</g>
<!-- QualificationDetailsComponent -->
<g id="node8" class="node">
<title>QualificationDetailsComponent</title>
<polygon fill="#ffffb3" stroke="black" points="776.35,-84.8 581.65,-84.8 581.65,-48.8 776.35,-48.8 776.35,-84.8"/>
<text text-anchor="middle" x="679" y="-62.6" font-family="Times,serif" font-size="14.00">QualificationDetailsComponent</text>
</g>
<!-- QualificationDetailsComponent&#45;&gt;AppModule -->
<g id="edge8" class="edge">
<title>QualificationDetailsComponent&#45;&gt;AppModule</title>
<path fill="none" stroke="black" d="M679,-84.82C679,-102.17 679,-125.8 679,-125.8 679,-125.8 1070.32,-125.8 1070.32,-125.8"/>
<polygon fill="black" stroke="black" points="1070.32,-129.3 1080.32,-125.8 1070.32,-122.3 1070.32,-129.3"/>
</g>
<!-- QualificationEditorComponent -->
<g id="node9" class="node">
<title>QualificationEditorComponent</title>
<polygon fill="#ffffb3" stroke="black" points="563.19,-84.8 372.81,-84.8 372.81,-48.8 563.19,-48.8 563.19,-84.8"/>
<text text-anchor="middle" x="468" y="-62.6" font-family="Times,serif" font-size="14.00">QualificationEditorComponent</text>
</g>
<!-- QualificationEditorComponent&#45;&gt;AppModule -->
<g id="edge9" class="edge">
<title>QualificationEditorComponent&#45;&gt;AppModule</title>
<path fill="none" stroke="black" d="M468,-84.91C468,-104.14 468,-131.8 468,-131.8 468,-131.8 1070.09,-131.8 1070.09,-131.8"/>
<polygon fill="black" stroke="black" points="1070.09,-135.3 1080.09,-131.8 1070.09,-128.3 1070.09,-135.3"/>
</g>
<!-- QualificationListComponent -->
<g id="node10" class="node">
<title>QualificationListComponent</title>
<polygon fill="#ffffb3" stroke="black" points="354.47,-84.8 177.53,-84.8 177.53,-48.8 354.47,-48.8 354.47,-84.8"/>
<text text-anchor="middle" x="266" y="-62.6" font-family="Times,serif" font-size="14.00">QualificationListComponent</text>
</g>
<!-- QualificationListComponent&#45;&gt;AppModule -->
<g id="edge10" class="edge">
<title>QualificationListComponent&#45;&gt;AppModule</title>
<path fill="none" stroke="black" d="M266,-85.08C266,-106.12 266,-137.8 266,-137.8 266,-137.8 1070.13,-137.8 1070.13,-137.8"/>
<polygon fill="black" stroke="black" points="1070.13,-141.3 1080.13,-137.8 1070.13,-134.3 1070.13,-141.3"/>
</g>
<!-- StatusBarComponent -->
<g id="node11" class="node">
<title>StatusBarComponent</title>
<polygon fill="#ffffb3" stroke="black" points="159.77,-84.8 24.23,-84.8 24.23,-48.8 159.77,-48.8 159.77,-84.8"/>
<text text-anchor="middle" x="92" y="-62.6" font-family="Times,serif" font-size="14.00">StatusBarComponent</text>
</g>
<!-- StatusBarComponent&#45;&gt;AppModule -->
<g id="edge11" class="edge">
<title>StatusBarComponent&#45;&gt;AppModule</title>
<path fill="none" stroke="black" d="M92,-85.05C92,-107.82 92,-143.8 92,-143.8 92,-143.8 1070.03,-143.8 1070.03,-143.8"/>
<polygon fill="black" stroke="black" points="1070.03,-147.3 1080.03,-143.8 1070.03,-140.3 1070.03,-147.3"/>
</g>
<!-- AppComponent  -->
<g id="node14" class="node">
<title>AppComponent </title>
<polygon fill="#80b1d3" stroke="black" points="1176.44,-214.8 1067.56,-214.8 1067.56,-178.8 1176.44,-178.8 1176.44,-214.8"/>
<text text-anchor="middle" x="1122" y="-192.6" font-family="Times,serif" font-size="14.00">AppComponent </text>
</g>
<!-- AppModule&#45;&gt;AppComponent  -->
<g id="edge13" class="edge">
<title>AppModule&#45;&gt;AppComponent </title>
<path fill="none" stroke="black" stroke-dasharray="1,5" d="M1122,-149.91C1122,-149.91 1122,-168.79 1122,-168.79"/>
<polygon fill="black" stroke="black" points="1118.5,-168.79 1122,-178.79 1125.5,-168.79 1118.5,-168.79"/>
</g>
<!-- AppRoutingModule -->
<g id="node13" class="node">
<title>AppRoutingModule</title>
<polygon fill="#8dd3c7" stroke="black" points="2160.28,-84.8 2157.28,-88.8 2136.28,-88.8 2133.28,-84.8 2031.72,-84.8 2031.72,-48.8 2160.28,-48.8 2160.28,-84.8"/>
<text text-anchor="middle" x="2096" y="-62.6" font-family="Times,serif" font-size="14.00">AppRoutingModule</text>
</g>
<!-- AppRoutingModule&#45;&gt;AppModule -->
<g id="edge12" class="edge">
<title>AppRoutingModule&#45;&gt;AppModule</title>
<path fill="none" stroke="black" d="M2096,-85.05C2096,-107.82 2096,-143.8 2096,-143.8 2096,-143.8 1173.85,-143.8 1173.85,-143.8"/>
<polygon fill="black" stroke="black" points="1173.85,-140.3 1163.85,-143.8 1173.85,-147.3 1173.85,-140.3"/>
</g>
</g>
</svg>
